<svg width="21" height="21" viewBox="0 0 21 21" fill="none" xmlns="http://www.w3.org/2000/svg">
<path d="M9.43875 11.0412V14.4055C9.43875 14.6282 9.51358 14.8148 9.66325 14.9655C9.81308 15.116 10.0017 15.1912 10.229 15.1912C10.4562 15.1912 10.6432 15.1168 10.79 14.968C10.9368 14.819 11.0103 14.631 11.0103 14.404V11.0412H14.3995C14.6222 11.0412 14.8088 10.9664 14.9595 10.8167C15.11 10.6669 15.1852 10.4783 15.1852 10.251C15.1852 10.0238 15.1108 9.83683 14.962 9.69C14.813 9.54317 14.625 9.46975 14.398 9.46975H11.0103V5.9055C11.0103 5.68283 10.9354 5.49617 10.7858 5.3455C10.6359 5.195 10.4473 5.11975 10.22 5.11975C9.99283 5.11975 9.80583 5.19417 9.659 5.343C9.51217 5.492 9.43875 5.68 9.43875 5.907V9.46975H5.8995C5.67683 9.46975 5.49017 9.54458 5.3395 9.69425C5.189 9.84408 5.11375 10.0327 5.11375 10.26C5.11375 10.4872 5.18817 10.6742 5.337 10.821C5.486 10.9678 5.674 11.0412 5.901 11.0412H9.43875ZM10.157 20.305C8.75367 20.305 7.43667 20.0393 6.206 19.508C4.97533 18.9767 3.899 18.25 2.977 17.328C2.055 16.406 1.32833 15.3293 0.797 14.098C0.265667 12.8667 0 11.5486 0 10.1437C0 8.73908 0.265667 7.42075 0.797 6.18875C1.32833 4.95692 2.05467 3.88408 2.976 2.97025C3.89733 2.05625 4.97383 1.33275 6.2055 0.79975C7.43717 0.266583 8.75558 0 10.1608 0C11.5658 0 12.8845 0.266416 14.117 0.799249C15.3493 1.33208 16.4223 2.05517 17.3358 2.9685C18.2494 3.88183 18.9727 4.95583 19.5055 6.1905C20.0385 7.42517 20.305 8.74458 20.305 10.1487C20.305 11.5527 20.0384 12.87 19.5052 14.1005C18.9722 15.3312 18.2487 16.4058 17.3347 17.3242C16.4209 18.2426 15.347 18.969 14.113 19.5035C12.879 20.0378 11.5603 20.305 10.157 20.305ZM10.162 18.6017C12.5043 18.6017 14.4956 17.7788 16.1357 16.133C17.7757 14.487 18.5957 12.4903 18.5957 10.143C18.5957 7.80067 17.7773 5.80942 16.1402 4.16925C14.5034 2.52925 12.5055 1.70925 10.1465 1.70925C7.8105 1.70925 5.81925 2.52775 4.17275 4.16475C2.52642 5.80158 1.70325 7.7995 1.70325 10.1585C1.70325 12.4945 2.52617 14.4857 4.172 16.1322C5.818 17.7786 7.81467 18.6017 10.162 18.6017Z" fill="black"/>
</svg>
